{"title":"Blood.Redd.2014.BRRip.480p.x264.AAC-VYTO [P2PDL]","uid":12942392,"size":322494267,"categoryP":"video","categoryS":"movies","magnet":"?xt=urn:btih:eaf0699de4bd6d5d2a567038f69651c9328bb6a4&amp;dn=Blood.Redd.2014.BRRip.480p.x264.AAC-VYTO+%5BP2PDL%5D&amp;tr=udp%3A%2F%2Ftracker.leechers-paradise.org%3A6969&amp;tr=udp%3A%2F%2Fzer0day.ch%3A1337&amp;tr=udp%3A%2F%2Fopen.demonii.com%3A1337&amp;tr=udp%3A%2F%2Ftracker.coppersurfer.tk%3A6969&amp;tr=udp%3A%2F%2Fexodus.desync.com%3A6969","seeders":0,"leechers":1,"uploader":"VYTOP2PDL","files":6,"time":1449639417,"description":"Blood.Redd.2014.BRRip.480p.x264.AAC-VYTO\r\n\r\n\r\nGenre: Horror \nhttp://www.imdb.com/title/tt1691924/\r\n\r\n\r\nGeneral\r\nFormat                         : MPEG-4\r\nFile size                      : 302 MiB\r\nDuration                       : 1h 30mn\r\nOverall bit rate               : 464 Kbps\r\n\r\nVideo\r\nFormat                         : AVC\r\nBit rate                       : 429 Kbps\r\nWidth                          : 720 pixels\r\nHeight                         : 384 pixels\r\nDisplay aspect ratio           : 1.85:1\r\nFrame rate mode                : Constant\r\nFrame rate                     : 29.970 fps\r\nBit depth                      : 8 bits\r\nStream size                    : 279 MiB (92%)\r\nWriting library                : x264\r\n\r\nAudio\r\nFormat                         : AAC\r\nBit rate mode                  : Variable\r\nBit rate                       : 32.0 Kbps\r\nChannel(s)                     : 2 channels \r\nChannel positions              : Front: L R\r\nSampling rate                  : 48.0 KHz\r\nStream size                    : 20.8 MiB (7%)\r\nLanguage                       : English\r\n\r\nSubtitle                       : N/a\r\n\r\nScreen Shots:\r\n \nhttp://ititli.com/FA \nhttp://ititli.com/Fl \nhttp://ititli.com/Fm \nhttp://ititli.com/Fx \nhttp://ititli.com/F7 \nhttp://ititli.com/FC \nhttp://ititli.com/FF \nhttp://ititli.com/FJ \nhttp://ititli.com/F5\r\n\r\n----------------------------------------------------------------------------------------------------\r\n\r\n\r\nEncoder Notes: Looking For Early Access To Anything You Can Provide WEBDL, DVDScr, DVDR, BluRay,\r\nDirect Audio, Music Releases and Seedboxes. If You Got anything to offer please contact us.\r\n\r\nSupport us by donating BC - 1FgwdzPsd1y25Gea8wP1qni35uGCtmkRCD\r\n\r\nSend some love!\r\nFind us and join us!","torrent":{"xt":"urn:btih:eaf0699de4bd6d5d2a567038f69651c9328bb6a4","amp;dn":"Blood.Redd.2014.BRRip.480p.x264.AAC-VYTO+%5BP2PDL%5D","amp;tr":["udp%3A%2F%2Ftracker.leechers-paradise.org%3A6969","udp%3A%2F%2Fzer0day.ch%3A1337","udp%3A%2F%2Fopen.demonii.com%3A1337","udp%3A%2F%2Ftracker.coppersurfer.tk%3A6969","udp%3A%2F%2Fexodus.desync.com%3A6969"],"infoHash":"eaf0699de4bd6d5d2a567038f69651c9328bb6a4","infoHashBuffer":{"type":"Buffer","data":[234,240,105,157,228,189,109,93,42,86,112,56,246,150,81,201,50,139,182,164]},"announce":[],"urlList":[]}}